# xmcd
#
# Track frame offsets: 
#        150
#        13066
#        29999
#        42982
#        55779
#        69116
#        80589
#        94807
#        109151
#        120512
#        142615
#        157767
#        170779
#        188089
#        201037
#        213859
#        227227
#        238892
#        252859
#        267217
#        278497
#        300562
#
# Disc length: 4203 seconds
#
# Revision: 0
# Processed by: cddbd v1.5.2PL0 Copyright (c) Steve Scherf et al.
# Submitted via: ExactAudioCopy v0.95b3
#
DISCID=29106916
DTITLE=The Rascals  - Groovin' - The Complete Atlantic Discography (19
DTITLE=65-1971) - Disc 03
DYEAR=1900
DGENRE=
TTITLE0=A Girl Like You (Mono)
TTITLE1=Find Somebody (Mono)
TTITLE2=I'm So Happy Now (Mono)
TTITLE3=Sueño (Mono)
TTITLE4=How Can I Be Sure (Mono)
TTITLE5=Groovin' (Mono)
TTITLE6=If You Knew (Mono)
TTITLE7=I Don't Love You Anymore (Mono)
TTITLE8=You Better Run (Mono)
TTITLE9=A Place In The Sun (Mono)
TTITLE10=It's Love (Mono)
TTITLE11=A Girl Like You [Stereo]
TTITLE12=Find Somebody [Stereo]
TTITLE13=I'm So Happy Now [Stereo]
TTITLE14=Sueno [Stereo]
TTITLE15=How Can I Be Sure [Stereo]
TTITLE16=Groovin' [Stereo]
TTITLE17=If You Knew [Stereo]
TTITLE18=I Don't Love You Anymore [Stereo]
TTITLE19=You Better Run [Stereo]
TTITLE20=A Place In The Sun [Stereo]
TTITLE21=It's Love [Stereo]
EXTD=
EXTT0=
EXTT1=
EXTT2=
EXTT3=
EXTT4=
EXTT5=
EXTT6=
EXTT7=
EXTT8=
EXTT9=
EXTT10=
EXTT11=
EXTT12=
EXTT13=
EXTT14=
EXTT15=
EXTT16=
EXTT17=
EXTT18=
EXTT19=
EXTT20=
EXTT21=
PLAYORDER=
